<svg width="11" height="13" viewBox="0 0 11 13" fill="none" xmlns="http://www.w3.org/2000/svg">
<path d="M2.00488 0.919922H3.00488V1.41992H8.00488V0.919922H9.00488V1.41992H11.0049V12.4199H0.00488281V1.41992H2.00488V0.919922ZM1.00488 2.41992V3.41992H10.0049V2.41992H9.00488V2.91992H8.00488V2.41992H3.00488V2.91992H2.00488V2.41992H1.00488ZM1.00488 4.41992V11.4199H10.0049V4.41992H1.00488ZM4.00488 5.41992H5.00488V6.41992H4.00488V5.41992ZM6.00488 5.41992H7.00488V6.41992H6.00488V5.41992ZM8.00488 5.41992H9.00488V6.41992H8.00488V5.41992ZM2.00488 7.41992H3.00488V8.41992H2.00488V7.41992ZM4.00488 7.41992H5.00488V8.41992H4.00488V7.41992ZM6.00488 7.41992H7.00488V8.41992H6.00488V7.41992ZM8.00488 7.41992H9.00488V8.41992H8.00488V7.41992ZM2.00488 9.41992H3.00488V10.4199H2.00488V9.41992ZM4.00488 9.41992H5.00488V10.4199H4.00488V9.41992ZM6.00488 9.41992H7.00488V10.4199H6.00488V9.41992Z" fill="#232323"/>
</svg>
