<svg width="24" height="27" viewBox="0 0 24 27" fill="none" xmlns="http://www.w3.org/2000/svg">
<path d="M9.29248 0.625C10.0542 0.625 10.7085 0.908203 11.2554 1.47461C11.8218 2.02148 12.105 2.67578 12.105 3.4375V7.36328C12.437 7.24609 12.7495 7.1875 13.0425 7.1875C13.7456 7.1875 14.3706 7.43164 14.9175 7.91992C15.4644 7.43164 16.0894 7.1875 16.7925 7.1875C17.437 7.1875 18.0132 7.39258 18.521 7.80273C19.0288 8.19336 19.3608 8.70117 19.5171 9.32617C19.9077 9.15039 20.2788 9.0625 20.6304 9.0625C21.3921 9.0625 22.0464 9.3457 22.5933 9.91211C23.1597 10.459 23.4429 11.1133 23.4429 11.875V19.1992C23.4429 20.5859 23.1011 21.875 22.4175 23.0664C21.7339 24.2383 20.7964 25.166 19.605 25.8496C18.4331 26.5332 17.1538 26.875 15.7671 26.875H14.1558C13.2769 26.875 12.4272 26.7285 11.6069 26.4355C10.8452 26.1621 10.1323 25.7812 9.46826 25.293L9.43896 25.2344L9.38037 25.2051L1.70459 17.6172V17.5879C1.15771 17.041 0.884277 16.3867 0.884277 15.625C0.884277 14.8633 1.15771 14.209 1.70459 13.6621C2.25146 13.1152 2.90576 12.8418 3.66748 12.8418C4.4292 12.8418 5.0835 13.1152 5.63037 13.6621L5.86475 13.8672L6.47998 14.5117V3.4375C6.47998 2.67578 6.75342 2.02148 7.30029 1.47461C7.8667 0.908203 8.53076 0.625 9.29248 0.625ZM9.29248 2.5C9.03857 2.5 8.81396 2.59766 8.61865 2.79297C8.44287 2.96875 8.35498 3.18359 8.35498 3.4375V19.0234L4.31201 14.9805C4.09717 14.7656 3.88232 14.6582 3.66748 14.6582C3.45264 14.6582 3.23779 14.7656 3.02295 14.9805C2.80811 15.1953 2.70068 15.4102 2.70068 15.625C2.70068 15.8398 2.80811 16.0547 3.02295 16.2695L10.6108 23.7695C11.7046 24.5898 12.8862 25 14.1558 25H15.7671C16.8413 25 17.8179 24.7461 18.6968 24.2383C19.5757 23.7109 20.269 23.0078 20.7769 22.1289C21.3042 21.25 21.5679 20.2734 21.5679 19.1992V11.875C21.5679 11.6211 21.4702 11.4062 21.2749 11.2305C21.0991 11.0352 20.8843 10.9375 20.6304 10.9375C20.3765 10.9375 20.1519 11.0352 19.9565 11.2305C19.7808 11.4062 19.6929 11.6211 19.6929 11.875V13.75H17.73V10C17.73 9.74609 17.6323 9.53125 17.437 9.35547C17.2612 9.16016 17.0464 9.0625 16.7925 9.0625C16.5386 9.0625 16.314 9.16016 16.1187 9.35547C15.9429 9.53125 15.855 9.74609 15.855 10V13.75H13.98V10C13.98 9.74609 13.8823 9.53125 13.687 9.35547C13.5112 9.16016 13.2964 9.0625 13.0425 9.0625C12.7886 9.0625 12.564 9.16016 12.3687 9.35547C12.1929 9.53125 12.105 9.74609 12.105 10V13.75H10.23V3.4375C10.23 3.18359 10.1323 2.96875 9.93701 2.79297C9.76123 2.59766 9.54639 2.5 9.29248 2.5Z" fill="white"/>
</svg>
