<svg width="25" height="23" viewBox="0 0 25 23" fill="none" xmlns="http://www.w3.org/2000/svg">
<path d="M0.577637 0.4375H24.9526V17.3125H11.2124L5.26514 22.0586V17.3125H0.577637V0.4375ZM2.45264 2.3125V15.4375H7.14014V18.1621L10.5679 15.4375H23.0776V2.3125H2.45264ZM7.14014 7C7.66748 7 8.10693 7.18555 8.4585 7.55664C8.82959 7.9082 9.01514 8.34766 9.01514 8.875C9.01514 9.40234 8.82959 9.85156 8.4585 10.2227C8.10693 10.5742 7.66748 10.75 7.14014 10.75C6.61279 10.75 6.16357 10.5742 5.79248 10.2227C5.44092 9.85156 5.26514 9.40234 5.26514 8.875C5.26514 8.34766 5.44092 7.9082 5.79248 7.55664C6.16357 7.18555 6.61279 7 7.14014 7ZM12.7651 7C13.2925 7 13.7319 7.18555 14.0835 7.55664C14.4546 7.9082 14.6401 8.34766 14.6401 8.875C14.6401 9.40234 14.4546 9.85156 14.0835 10.2227C13.7319 10.5742 13.2925 10.75 12.7651 10.75C12.2378 10.75 11.7886 10.5742 11.4175 10.2227C11.0659 9.85156 10.8901 9.40234 10.8901 8.875C10.8901 8.34766 11.0659 7.9082 11.4175 7.55664C11.7886 7.18555 12.2378 7 12.7651 7ZM18.3901 7C18.9175 7 19.3569 7.18555 19.7085 7.55664C20.0796 7.9082 20.2651 8.34766 20.2651 8.875C20.2651 9.40234 20.0796 9.85156 19.7085 10.2227C19.3569 10.5742 18.9175 10.75 18.3901 10.75C17.8628 10.75 17.4136 10.5742 17.0425 10.2227C16.6909 9.85156 16.5151 9.40234 16.5151 8.875C16.5151 8.34766 16.6909 7.9082 17.0425 7.55664C17.4136 7.18555 17.8628 7 18.3901 7Z" fill="white"/>
</svg>
